<svg width="12" height="13" viewBox="0 0 12 13" fill="none" xmlns="http://www.w3.org/2000/svg">
<path d="M10.875 0.875C11.2734 0.875 11.625 1.22656 11.625 1.625V5C11.625 5.42188 11.2734 5.75 10.875 5.75H7.875C7.45312 5.75 7.125 5.42188 7.125 5C7.125 4.60156 7.45312 4.25 7.875 4.25H8.90625C8.25 3.33594 7.17188 2.75 6 2.75C4.42969 2.75 3.04688 3.75781 2.57812 5.23438C2.46094 5.63281 2.03906 5.84375 1.64062 5.72656C1.24219 5.60938 1.03125 5.1875 1.14844 4.78906C1.82812 2.67969 3.77344 1.25 6 1.25C7.66406 1.25 9.1875 2.07031 10.125 3.38281V1.625C10.125 1.22656 10.4531 0.875 10.875 0.875ZM10.3359 7.29688C10.7344 7.41406 10.9453 7.83594 10.8047 8.23438C10.125 10.3438 8.17969 11.75 5.97656 11.75C4.3125 11.75 2.78906 10.9531 1.875 9.64062V11.375C1.875 11.7969 1.52344 12.125 1.125 12.125C0.703125 12.125 0.375 11.7969 0.375 11.375V8C0.375 7.60156 0.703125 7.25 1.125 7.25H4.125C4.52344 7.25 4.875 7.60156 4.875 8C4.875 8.42188 4.52344 8.75 4.125 8.75H3.07031C3.72656 9.6875 4.80469 10.25 6 10.25C7.54688 10.25 8.92969 9.26562 9.39844 7.78906C9.51562 7.39062 9.9375 7.17969 10.3359 7.29688Z" fill="#0067DD"/>
</svg>
