<svg xmlns="http://www.w3.org/2000/svg" version="1.0" width="109.000000pt" height="104.000000pt" viewBox="0 0 109.000000 104.000000" preserveAspectRatio="xMidYMid meet">

<g transform="translate(0.000000,104.000000) scale(0.100000,-0.100000)" fill="#607290" stroke="none">
<path d="M423 1025 c-178 -39 -327 -168 -393 -340 -34 -86 -34 -244 0 -330 49 -129 146 -236 266 -295 295 -145 647 -10 764 295 34 86 34 244 0 330 -99 256 -366 399 -637 340z m278 -204 c74 -35 125 -85 161 -159 30 -61 33 -75 33 -157 -1 -73 -5 -99 -23 -136 -35 -71 -84 -122 -154 -160 -59 -32 -69 -34 -158 -34 -84 0 -102 3 -152 28 -184 90 -245 332 -127 504 37 53 83 88 156 119 75 32 192 30 264 -5z" fill="#607290"/>
<path d="M483 800 c-87 -20 -169 -96 -203 -188 -33 -88 -25 -172 24 -256 l25 -43 216 210 215 210 -32 24 c-61 45 -163 63 -245 43z" fill="#607290"/>
<path d="M577 495 c-114 -112 -207 -209 -207 -213 0 -5 24 -22 53 -38 46 -26 62 -29 137 -29 76 0 91 3 139 30 146 81 200 250 126 400 -14 30 -30 55 -33 55 -4 0 -100 -92 -215 -205z" fill="#607290"/>
</g>
</svg>