<svg width="12" height="11" viewBox="0 0 12 11" fill="none" xmlns="http://www.w3.org/2000/svg">
<path d="M9.75 0.25C10.9922 0.25 12 1.25781 12 2.5V8.5C12 9.76562 10.9922 10.75 9.75 10.75H8.25C7.82812 10.75 7.5 10.4219 7.5 10C7.5 9.60156 7.82812 9.25 8.25 9.25H9.75C10.1484 9.25 10.5 8.92188 10.5 8.5V2.5C10.5 2.10156 10.1484 1.75 9.75 1.75H8.25C7.82812 1.75 7.5 1.42188 7.5 1C7.5 0.601562 7.82812 0.25 8.25 0.25H9.75ZM8.01562 4.98438C8.32031 5.26562 8.32031 5.75781 8.01562 6.03906L5.01562 9.03906C4.73438 9.34375 4.24219 9.34375 3.96094 9.03906C3.65625 8.75781 3.65625 8.26562 3.96094 7.98438L5.67188 6.25H0.75C0.328125 6.25 0 5.92188 0 5.5C0 5.10156 0.328125 4.75 0.75 4.75H5.67188L3.96094 3.03906C3.65625 2.75781 3.65625 2.26562 3.96094 1.98438C4.24219 1.67969 4.73438 1.67969 5.01562 1.98438L8.01562 4.98438Z" fill="#0067DD"/>
</svg>
