<svg width="18" height="17" viewBox="0 0 18 17" fill="none" xmlns="http://www.w3.org/2000/svg">
<path d="M2.84375 10.125L12.3438 0.59375C12.7396 0.21875 13.2083 0.03125 13.75 0.03125C14.2917 0.03125 14.7604 0.21875 15.1562 0.59375L16.4062 1.84375C16.4896 1.92708 16.5729 2.03125 16.6562 2.15625C16.9062 2.55208 17.0104 2.97917 16.9688 3.4375C16.9271 3.89583 16.7396 4.30208 16.4062 4.65625L6.90625 14.1562C6.88542 14.1771 6.86458 14.1979 6.84375 14.2188C6.82292 14.2188 6.80208 14.2396 6.78125 14.2812C6.46875 14.5312 6.11458 14.7292 5.71875 14.875L1.96875 15.9688C1.67708 16.0521 1.42708 15.9792 1.21875 15.75C1.01042 15.5625 0.947917 15.3229 1.03125 15.0312L2.125 11.2812C2.27083 10.8229 2.51042 10.4375 2.84375 10.125ZM3.5625 11.6875L2.84375 14.1562L5.3125 13.4375C5.5 13.375 5.67708 13.2708 5.84375 13.125L12.9688 5.96875L11 4L3.90625 11.1562C3.88542 11.1771 3.86458 11.1979 3.84375 11.2188C3.71875 11.3646 3.625 11.5208 3.5625 11.6875Z" fill="#0067DD"/>
</svg>
