<svg width="121" height="105" viewBox="0 0 121 105" fill="none" xmlns="http://www.w3.org/2000/svg">
<circle cx="65.4766" cy="38.6562" r="38" fill="white"/>
<circle cx="65.4766" cy="38.6562" r="32.75" fill="white" stroke="#4D545C" stroke-width="0.5"/>
<circle cx="64.9766" cy="39.1562" r="30.5" fill="#F88E86"/>
<circle cx="65.4766" cy="38.6562" r="23" fill="white"/>
<ellipse cx="65.9766" cy="38.6562" rx="16.5" ry="17" fill="#F88E86"/>
<ellipse cx="65.9766" cy="38.6562" rx="9.5" ry="9" fill="white"/>
<path d="M38.3652 65.935L35.7808 54.4141" stroke="#4D545C" stroke-width="0.5" stroke-linejoin="round"/>
<path d="M19.5492 68.1946C19.6877 68.9576 19.5492 69.609 19.1599 69.6443C18.7706 69.6795 18.4072 69.0574 18.2947 68.3179C18.1822 67.5784 18.2947 66.8976 18.6754 66.8682C19.0561 66.8389 19.4108 67.4258 19.5492 68.1946Z" fill="white" stroke="#4D545C" stroke-width="0.5" stroke-linejoin="round"/>
<path fill-rule="evenodd" clip-rule="evenodd" d="M53.9536 41.0235C62.175 40.0052 69.6653 45.8445 70.6836 54.066L72.2925 67.0555C73.3107 75.2769 67.4714 82.7672 59.25 83.7855L31.3745 87.2381L24.8743 95.5761C24.3266 96.2787 23.2027 95.9683 23.0932 95.0842L22.1515 87.4805C16.1701 86.1153 11.4007 81.1367 10.6029 74.6961L8.9941 61.7066C7.97582 53.4852 13.8151 45.9949 22.0366 44.9766L53.9536 41.0235Z" fill="white"/>
<path d="M70.6836 54.066L70.9317 54.0352L70.6836 54.066ZM53.9536 41.0235L53.9843 41.2716L53.9536 41.0235ZM72.2925 67.0555L72.0444 67.0862L72.2925 67.0555ZM59.25 83.7855L59.2192 83.5374L59.25 83.7855ZM31.3745 87.2381L31.1773 87.0844L31.241 87.0027L31.3438 86.99L31.3745 87.2381ZM22.1515 87.4805L22.2071 87.2368L22.378 87.2758L22.3996 87.4498L22.1515 87.4805ZM22.0366 44.9766L22.0059 44.7285L22.0366 44.9766ZM70.4355 54.0967C69.4342 46.0123 62.0687 40.2702 53.9843 41.2716L53.9229 40.7753C62.2813 39.7401 69.8965 45.6767 70.9317 54.0352L70.4355 54.0967ZM72.0444 67.0862L70.4355 54.0967L70.9317 54.0352L72.5406 67.0247L72.0444 67.0862ZM59.2192 83.5374C67.3037 82.5361 73.0457 75.1706 72.0444 67.0862L72.5406 67.0247C73.5758 75.3832 67.6392 82.9983 59.2807 84.0336L59.2192 83.5374ZM31.3438 86.99L59.2192 83.5374L59.2807 84.0336L31.4052 87.4862L31.3438 86.99ZM24.6771 95.4224L31.1773 87.0844L31.5717 87.3918L25.0715 95.7298L24.6771 95.4224ZM23.3413 95.0534C23.4235 95.7165 24.2663 95.9493 24.6771 95.4224L25.0715 95.7298C24.3868 96.6081 22.982 96.2201 22.8451 95.1149L23.3413 95.0534ZM22.3996 87.4498L23.3413 95.0534L22.8451 95.1149L21.9034 87.5112L22.3996 87.4498ZM10.8511 74.6654C11.6354 80.9982 16.3251 85.8942 22.2071 87.2368L22.0958 87.7242C16.0152 86.3364 11.1659 81.2751 10.3548 74.7269L10.8511 74.6654ZM9.24221 61.6759L10.8511 74.6654L10.3548 74.7269L8.746 61.7373L9.24221 61.6759ZM22.0673 45.2247C13.9829 46.226 8.2409 53.5915 9.24221 61.6759L8.746 61.7373C7.71074 53.3789 13.6474 45.7637 22.0059 44.7285L22.0673 45.2247ZM53.9843 41.2716L22.0673 45.2247L22.0059 44.7285L53.9229 40.7753L53.9843 41.2716Z" fill="#4D545C"/>
<path fill-rule="evenodd" clip-rule="evenodd" d="M53.0649 39.7188C61.2864 38.7005 68.7767 44.5398 69.7949 52.7613L71.4038 65.7508C72.4221 73.9722 66.5827 81.4625 58.3613 82.4808L30.4857 85.9334L23.9854 94.2715C23.4377 94.9741 22.3138 94.6637 22.2043 93.7796L21.2625 86.1758C15.2813 84.8105 10.512 79.8319 9.71428 73.3915L8.10543 60.4019C7.08715 52.1805 12.9265 44.6902 21.1479 43.6719L53.0649 39.7188Z" fill="#CDF4D7"/>
<path d="M16.3164 59.0781L59.7795 53.6949" stroke="#4D545C" stroke-width="0.5" stroke-linecap="round"/>
<path d="M16.8379 63.2812L60.301 57.898" stroke="#4D545C" stroke-width="0.5" stroke-linecap="round"/>
<path d="M17.4414 68.1562L60.9045 62.773" stroke="#4D545C" stroke-width="0.5" stroke-linecap="round"/>
<path d="M17.9629 72.3594L39.6944 69.6678" stroke="#4D545C" stroke-width="0.5" stroke-linecap="round"/>
<path d="M100.031 86.038C106.287 87.1753 105.289 72.8125 105.289 72.8125L100.031 86.038Z" fill="white"/>
<path d="M100.031 86.038C106.287 87.1753 105.289 72.8125 105.289 72.8125" stroke="#4D545C" stroke-width="0.5" stroke-linecap="round" stroke-linejoin="round" stroke-dasharray="2 2"/>
<path d="M77.1719 59.2344C77.7591 59.4669 78.3874 59.6404 79.0393 59.7499C79.1894 59.7713 79.3438 59.7713 79.4939 59.7499C79.5696 59.7415 79.6408 59.7185 79.6999 59.6832C79.7591 59.6479 79.8039 59.6017 79.8298 59.5494" stroke="#4D545C" stroke-width="0.5" stroke-linecap="round" stroke-linejoin="round"/>
<path d="M77.2129 60.3125C77.8001 60.5451 78.4284 60.7185 79.0803 60.828C79.2304 60.8494 79.3848 60.8494 79.5349 60.828C79.6106 60.8197 79.6818 60.7966 79.741 60.7613C79.8001 60.726 79.845 60.6798 79.8708 60.6275" stroke="#4D545C" stroke-width="0.5" stroke-linecap="round" stroke-linejoin="round"/>
<path d="M77.2129 58.1484C77.8001 58.381 78.4284 58.5544 79.0803 58.664C79.2304 58.6854 79.3848 58.6854 79.5349 58.664C79.6106 58.6556 79.6818 58.6326 79.741 58.5973C79.8001 58.562 79.845 58.5157 79.8708 58.4635" stroke="#4D545C" stroke-width="0.5" stroke-linecap="round" stroke-linejoin="round"/>
<path fill-rule="evenodd" clip-rule="evenodd" d="M89.0942 51.6949C81.8204 47.7299 72.7096 50.4122 68.7446 57.686L66.6571 61.5155C62.6922 68.7893 65.3745 77.9001 72.6483 81.8651L89.6482 91.1318L91.8912 98.7503C92.1428 99.605 93.3021 99.7288 93.7285 98.9465L96.6171 93.6474L95.3881 92.9774C101.249 93.6128 107.185 90.7381 110.181 85.2407L112.269 81.4113C116.234 74.1375 113.552 65.0267 106.278 61.0617L89.0942 51.6949Z" fill="white"/>
<path d="M89.0942 51.6949L89.2139 51.4753L89.0942 51.6949ZM72.6483 81.8651L72.5286 82.0846L72.6483 81.8651ZM89.6482 91.1318L89.888 91.0612L89.8588 90.9619L89.7678 90.9123L89.6482 91.1318ZM91.8912 98.7503L91.6513 98.8209L91.8912 98.7503ZM96.6171 93.6474L96.8366 93.767L96.9562 93.5475L96.7367 93.4278L96.6171 93.6474ZM95.3881 92.9774L95.415 92.7289L95.2684 93.1969L95.3881 92.9774ZM106.278 61.0617L106.158 61.2812L106.278 61.0617ZM68.9641 57.8057C72.863 50.6531 81.822 48.0155 88.9745 51.9144L89.2139 51.4753C81.8188 47.4443 72.5562 50.1713 68.5251 57.5663L68.9641 57.8057ZM66.8766 61.6351L68.9641 57.8057L68.5251 57.5663L66.4376 61.3958L66.8766 61.6351ZM72.7679 81.6456C65.6154 77.7467 62.9777 68.7877 66.8766 61.6351L66.4376 61.3958C62.4066 68.7908 65.1336 78.0535 72.5286 82.0846L72.7679 81.6456ZM89.7678 90.9123L72.7679 81.6456L72.5286 82.0846L89.5285 91.3513L89.7678 90.9123ZM92.131 98.6797L89.888 91.0612L89.4084 91.2024L91.6513 98.8209L92.131 98.6797ZM93.509 98.8269C93.1892 99.4135 92.3197 99.3207 92.131 98.6797L91.6513 98.8209C91.9659 99.8892 93.415 100.044 93.948 99.0662L93.509 98.8269ZM96.3976 93.5277L93.509 98.8269L93.948 99.0662L96.8366 93.767L96.3976 93.5277ZM95.2684 93.1969L96.4974 93.8669L96.7367 93.4278L95.5077 92.7579L95.2684 93.1969ZM109.962 85.1211C107.015 90.5265 101.179 93.3537 95.415 92.7289L95.3611 93.226C101.319 93.8719 107.354 90.9497 110.401 85.3604L109.962 85.1211ZM112.049 81.2916L109.962 85.1211L110.401 85.3604L112.488 81.5309L112.049 81.2916ZM106.158 61.2812C113.311 65.1801 115.948 74.1391 112.049 81.2916L112.488 81.5309C116.519 74.1359 113.792 64.8732 106.397 60.8422L106.158 61.2812ZM88.9745 51.9144L106.158 61.2812L106.397 60.8422L89.2139 51.4753L88.9745 51.9144Z" fill="#4D545C"/>
<path fill-rule="evenodd" clip-rule="evenodd" d="M88.7778 48.9683C81.504 45.0033 72.3932 47.6856 68.4282 54.9594L66.3407 58.7889C62.3757 66.0627 65.0581 75.1735 72.3319 79.1385L89.3317 88.4052L91.5747 96.0238C91.8263 96.8785 92.9856 97.0022 93.412 96.22L96.3006 90.9208L95.0715 90.2508C100.932 90.8863 106.868 88.0116 109.865 82.5142L111.952 78.6847C115.917 71.4109 113.235 62.3001 105.961 58.3351L88.7778 48.9683Z" fill="#FFEBC2"/>
<path d="M77.0371 55.9141L107.702 72.6296" stroke="#4D545C" stroke-width="0.5" stroke-linecap="round"/>
<path d="M75.4199 58.8828L106.085 75.5983" stroke="#4D545C" stroke-width="0.5" stroke-linecap="round"/>
<path d="M73.4805 62.4219L104.145 79.1374" stroke="#4D545C" stroke-width="0.5" stroke-linecap="round"/>
<path d="M71.9277 65.2891L87.2601 73.6468" stroke="#4D545C" stroke-width="0.5" stroke-linecap="round"/>
</svg>
