<svg width="18" height="19" viewBox="0 0 18 19" fill="none" xmlns="http://www.w3.org/2000/svg">
<path d="M9 0.75C13.957 0.75 18 4.79297 18 9.75C18 14.7422 13.957 18.75 9 18.75C7.13672 18.75 5.44922 18.2227 4.00781 17.2734C3.62109 17.0273 3.51562 16.5 3.76172 16.1133C4.04297 15.7266 4.57031 15.6211 4.95703 15.8672C6.11719 16.6406 7.48828 17.0625 9 17.0625C13.0078 17.0625 16.3125 13.793 16.3125 9.75C16.3125 5.74219 13.0078 2.4375 9 2.4375C6.39844 2.4375 4.11328 3.80859 2.8125 5.8125H4.78125C5.23828 5.8125 5.625 6.19922 5.625 6.65625C5.625 7.14844 5.23828 7.5 4.78125 7.5H0.84375C0.351562 7.5 0 7.14844 0 6.65625V2.71875C0 2.26172 0.351562 1.875 0.84375 1.875C1.30078 1.875 1.6875 2.26172 1.6875 2.71875V4.51172C3.30469 2.26172 5.97656 0.75 9 0.75ZM9 5.25C9.45703 5.25 9.84375 5.63672 9.84375 6.09375V9.43359L12.0938 11.6836C12.4453 12.0352 12.4453 12.5625 12.0938 12.8789C11.7773 13.2305 11.25 13.2305 10.9336 12.8789L8.40234 10.3477C8.22656 10.207 8.15625 9.99609 8.15625 9.75V6.09375C8.15625 5.63672 8.50781 5.25 9 5.25Z" fill="white"/>
</svg>
