<svg width="168" height="176" viewBox="0 0 168 176" fill="none" xmlns="http://www.w3.org/2000/svg">
<rect x="0.623047" width="167" height="175" fill="white"/>
<rect opacity="0.5" y="-0.353519" width="140.682" height="88.6302" rx="44.3151" transform="matrix(-0.707176 -0.707038 0.707176 -0.707038 100.09 167.951)" stroke="#4D545C" stroke-width="0.5" stroke-dasharray="2 2"/>
<rect opacity="0.5" x="0.341535" y="-0.0915141" width="140.675" height="88.6345" rx="44.3173" transform="matrix(0.500073 -0.865983 0.866068 0.499927 7.78906 126.234)" stroke="#4D545C" stroke-width="0.5" stroke-dasharray="2 2"/>
<ellipse cx="82.7718" cy="74.3823" rx="34.1468" ry="34.1402" fill="white"/>
<path d="M112.35 74.3772C112.35 90.7096 99.1075 103.95 82.7717 103.95C66.436 103.95 53.1934 90.7096 53.1934 74.3772C53.1934 58.0448 66.436 44.8047 82.7717 44.8047C99.1075 44.8047 112.35 58.0448 112.35 74.3772Z" fill="white" stroke="#5C5E60" stroke-width="0.75"/>
<ellipse cx="82.7719" cy="74.3798" rx="27.5571" ry="27.5517" fill="#F88E86"/>
<ellipse cx="82.772" cy="74.3851" rx="20.9673" ry="20.9633" fill="white"/>
<path d="M82.5977 77.0556V67.2188" stroke="#F88E86" stroke-width="2" stroke-linecap="round"/>
<ellipse cx="82.5529" cy="73.7867" rx="12.672" ry="12.6696" stroke="#F88E86"/>
<mask id="path-10-inside-1_5767_800" fill="white">
<ellipse cx="82.5539" cy="79.9111" rx="0.81755" ry="0.817391"/>
</mask>
<path d="M82.3714 79.9111C82.3714 79.8101 82.4533 79.7285 82.5539 79.7285V81.7285C83.5575 81.7285 84.3714 80.915 84.3714 79.9111H82.3714ZM82.5539 79.7285C82.6545 79.7285 82.7363 79.8101 82.7363 79.9111H80.7363C80.7363 80.915 81.5503 81.7285 82.5539 81.7285V79.7285ZM82.7363 79.9111C82.7363 80.0122 82.6545 80.0938 82.5539 80.0938V78.0938C81.5503 78.0938 80.7363 78.9072 80.7363 79.9111H82.7363ZM82.5539 80.0938C82.4533 80.0938 82.3714 80.0122 82.3714 79.9111H84.3714C84.3714 78.9072 83.5575 78.0938 82.5539 78.0938V80.0938Z" fill="#F88E86" mask="url(#path-10-inside-1_5767_800)"/>
<path d="M11.1378 81.1864L76.5898 51.6562" stroke="#47494B" stroke-width="0.5"/>
<path d="M8.37693 82.3739L57.377 60.3672" stroke="#47494B" stroke-width="3"/>
<path d="M75.127 44.1833C75.127 55.8825 84.6129 65.3666 96.3145 65.3666C108.016 65.3666 117.502 55.8825 117.502 44.1833C117.502 32.4841 108.016 23 96.3145 23C84.6129 23 75.127 32.4841 75.127 44.1833Z" fill="white" stroke="#47494B" stroke-width="0.5"/>
<g style="mix-blend-mode:multiply">
<ellipse cx="19.6875" cy="19.6837" rx="19.6875" ry="19.6837" transform="matrix(-1 8.74057e-08 8.74399e-08 1 116.002 24.5)" fill="#F1F7FF"/>
</g>
<path d="M68.0043 54.0259C67.2957 58.7882 58.4918 76.3849 55.7669 76.8388C53.0421 77.2928 44.8235 61.5337 44.8235 61.5337C44.8235 61.5337 40.3274 46.5563 44.8686 46.8755C49.4099 47.1947 55.3128 69.575 55.3128 69.575L62.5427 59.4372C62.3112 59.0181 62.1077 58.5835 61.9336 58.136C61.6704 57.1311 61.7416 56.1331 62.6267 55.1164C63.5118 54.0998 62.702 56.3941 62.9293 56.2557C63.1475 55.5863 63.6193 54.2033 63.7615 54.0259C63.9392 53.8041 64.3767 53.3667 64.8142 53.8041C65.1058 53.6583 66.0192 53.6087 66.2854 54.0259C66.2854 54.0259 67.257 52.498 68.0043 54.0259Z" fill="white" stroke="#4D545C" stroke-width="0.5" stroke-linecap="round" stroke-linejoin="round"/>
<path d="M36.2827 162.032L37.2993 169.033C37.2993 169.033 38.9259 173.671 40.4305 171.871C41.312 170.825 42.3384 169.903 43.4804 169.132L43.9785 161.844L36.2827 162.032Z" fill="white" stroke="#4D545C" stroke-width="0.5" stroke-linecap="round" stroke-linejoin="round"/>
<path d="M34.6088 175.009C34.5432 172.29 34.9423 170.256 35.3105 167.559C35.3476 167.451 35.417 167.357 35.5099 167.287C35.6028 167.218 35.715 167.177 35.8319 167.17C35.9472 167.148 36.066 167.152 36.1795 167.181C36.293 167.211 36.3982 167.264 36.4871 167.339C37.2759 168.09 38.5581 170.352 40.6586 169.686C41.521 169.413 42.8345 168.778 43.5865 168.286C43.7283 168.186 43.8992 168.132 44.0745 168.132C44.2499 168.132 44.4208 168.186 44.5625 168.286L51.1272 171.368C51.6095 171.564 52.0155 171.902 52.2869 172.335C52.5584 172.768 52.6813 173.274 52.638 173.778C52.5578 174.75 52.4306 175.009 52.1231 175.009H34.6088Z" fill="white"/>
<path d="M35.8785 167.416C35.8681 167.418 35.8576 167.419 35.847 167.42C35.778 167.424 35.7127 167.448 35.6594 167.488C35.612 167.523 35.5761 167.569 35.5544 167.621C35.4873 168.111 35.4195 168.578 35.3538 169.03C35.0692 170.991 34.8246 172.676 34.8541 174.759H52.1231C52.1636 174.759 52.175 174.751 52.1787 174.749C52.185 174.744 52.2075 174.726 52.2362 174.659C52.2982 174.515 52.3485 174.246 52.3888 173.758L52.3889 173.757C52.4275 173.307 52.318 172.856 52.0751 172.468C51.8322 172.081 51.4678 171.776 51.0333 171.6L51.0332 171.6L51.0209 171.595L44.4563 168.512C44.443 168.506 44.4303 168.498 44.4184 168.49C44.3192 168.42 44.1989 168.382 44.0745 168.382C43.9502 168.382 43.8298 168.42 43.7307 168.49L43.7308 168.49L43.7234 168.495C42.9536 168.998 41.6196 169.644 40.7342 169.925C39.5697 170.293 38.636 169.84 37.9196 169.235C37.5629 168.933 37.2525 168.589 36.9866 168.279C36.922 168.204 36.8607 168.131 36.8023 168.063C36.6167 167.844 36.4607 167.66 36.3209 167.526C36.2621 167.478 36.1926 167.443 36.1173 167.423C36.0394 167.403 35.9577 167.401 35.8785 167.416Z" stroke="#4D545C" stroke-width="0.5" stroke-linecap="round" stroke-linejoin="round"/>
<path d="M34.9491 173.367H44.9766" stroke="#4D545C" stroke-width="0.5" stroke-linecap="round" stroke-linejoin="round"/>
<path d="M12.6484 161.867L10.544 168.235C10.544 168.235 8.95377 169.57 8.37291 169.534C7.32545 169.471 6.75958 168.565 6.75958 168.565L6.77316 162.582L12.6484 161.867Z" fill="white" stroke="#4D545C" stroke-width="0.5" stroke-linecap="round" stroke-linejoin="round"/>
<path d="M4.98637 169.988C4.98672 169.994 4.98689 169.999 4.98689 170.004V172.274H12.7182V170.004C12.7182 169.999 12.7184 169.994 12.7187 169.989C12.7867 168.894 12.4999 167.815 11.9287 166.986C11.3613 166.162 10.5645 165.657 9.71666 165.555H7.98796C7.13919 165.653 6.34092 166.157 5.77293 166.982C5.20132 167.812 4.91559 168.892 4.98637 169.988Z" fill="white" stroke="#4D545C" stroke-width="0.5" stroke-linecap="round" stroke-linejoin="round"/>
<path d="M4.2645 172.687C4.26504 172.693 4.26532 172.7 4.26532 172.707V174.763H13.2128V172.707C13.2128 172.7 13.213 172.694 13.2135 172.687C13.29 171.705 12.9686 170.732 12.3169 169.978C11.6674 169.226 10.7412 168.751 9.73602 168.656H7.74169C6.73529 168.748 5.80735 169.222 5.1573 169.975C4.5051 170.73 4.18491 171.704 4.2645 172.687Z" fill="white" stroke="#4D545C" stroke-width="0.5" stroke-linecap="round" stroke-linejoin="round"/>
<path d="M10.5898 173.008H4.58494" stroke="#4D545C" stroke-width="0.5" stroke-linecap="round" stroke-linejoin="round"/>
<path d="M22.2629 55.9513C22.2629 55.9513 24.8653 47.7319 21.7471 48.2159C16.547 49.0483 12.2344 60.4176 14.51 76.166C15.246 81.2864 35.998 76.3015 35.998 76.3015L33.0947 75.0321L20.1998 72.4536L22.2629 55.9513Z" fill="white" stroke="#4D545C" stroke-width="0.5" stroke-linecap="round" stroke-linejoin="round"/>
<path d="M24.6194 70.7107C22.0654 75.0956 20.1863 79.8402 19.0451 84.7848C17.2813 91.6952 7.42894 150.087 6.6006 162.631C8.85694 162.985 11.1487 163.054 13.4222 162.836C17.7978 150.302 30.7685 109.795 32.6494 101.89C32.7084 101.642 32.8584 101.424 33.0698 101.28C33.2812 101.137 33.5387 101.077 33.7916 101.114C34.0446 101.151 34.2746 101.281 34.4365 101.478C34.5985 101.676 34.6805 101.927 34.6666 102.183C33.5946 111.208 35.261 147.855 36.1186 163.05C37.2588 163.635 42.7161 163.528 44.0317 163.362C45.4642 147.894 53.0752 89.2878 41.5856 70.3306C36.3135 69.6093 29.9597 70.5547 24.6194 70.7107Z" fill="white" stroke="#4D545C" stroke-width="0.5" stroke-linecap="round" stroke-linejoin="round"/>
<path d="M35.7341 158.547H44.5293" stroke="#4D545C" stroke-width="0.5" stroke-linecap="round" stroke-linejoin="round"/>
<path d="M7.04025 158.484H14.8848" stroke="#4D545C" stroke-width="0.5" stroke-linecap="round" stroke-linejoin="round"/>
<g style="mix-blend-mode:multiply">
<path d="M42.4767 73.8936C42.4767 73.8936 51.4049 102.623 43.6665 156.805H36.5082C36.5082 156.805 35.6134 99.5306 34.9939 98.7622C34.3744 97.9939 12.9979 156.805 12.9979 156.805H7.59968C7.59968 156.805 20.7387 77.2997 24.3277 72.9718C24.5047 72.7578 30.1537 75.7929 36.191 74.5189L42.4767 73.8936Z" fill="#F1F7FF"/>
</g>
<path d="M21.2308 48.2204C24.1192 47.8078 27.2484 47.0171 28.4519 46.6733C30.1026 45.4356 29.1397 39.2817 28.4519 36.3594H37.2203C36.7045 38.9379 36.0856 44.5074 37.7361 46.1576C39.7993 48.2204 44.8172 46.3931 44.9573 46.6733C45.9889 48.7361 43.9257 67.3011 42.8941 70.911C41.8625 74.5209 21.2308 73.4895 22.2624 70.3953C23.294 67.3011 17.6202 48.7361 21.2308 48.2204Z" fill="white"/>
<path d="M21.2308 48.2204C24.1192 47.8078 27.2484 47.0171 28.4519 46.6733C30.1026 45.4356 29.1397 39.2817 28.4519 36.3594H37.2203C36.7045 38.9379 36.0856 44.5074 37.7361 46.1576C39.7993 48.2204 44.8172 46.3931 44.9573 46.6733C45.9889 48.7361 43.9257 67.3011 42.8941 70.911C41.8625 74.5209 21.2308 73.4895 22.2624 70.3953C23.294 67.3011 17.6202 48.7361 21.2308 48.2204Z" stroke="#4D545C" stroke-width="0.5" stroke-linecap="round"/>
<path d="M39.2668 28.3228C39.2668 28.3228 42.676 32.4199 41.0309 36.66C39.4673 38.5085 37.634 39.7441 37.3477 39.2968" fill="white"/>
<path d="M39.2668 28.3228C39.2668 28.3228 42.676 32.4199 41.0309 36.66C39.4673 38.5085 37.634 39.7441 37.3477 39.2968" stroke="#4D545C" stroke-width="0.5" stroke-linecap="round" stroke-linejoin="round"/>
<path d="M43.0508 37.8054C40.8307 34.1735 40.7432 24.2029 40.2966 23.3506C39.1252 21.1156 33.0454 20.2505 30.728 21.7724C26.9694 24.2249 26.4294 31.1907 23.0713 38.7177C23.0713 38.7177 23.8601 41.8914 32.8394 41.8914C41.8187 41.8914 43.0508 37.8054 43.0508 37.8054Z" fill="white" stroke="#4D545C" stroke-width="0.5" stroke-linecap="round" stroke-linejoin="round"/>
<path d="M21.748 76.5781C25.5306 77.9533 34.643 80.0849 40.8325 77.6095" stroke="#4D545C" stroke-width="0.5" stroke-linecap="round" stroke-linejoin="round" stroke-dasharray="2 2"/>
<path d="M21.7486 80.7109L20.2012 87.9307L27.9381 89.4778L28.9697 81.7423" stroke="#4D545C" stroke-width="0.5" stroke-linecap="round" stroke-linejoin="round" stroke-dasharray="2 2"/>
<path d="M41.8647 80.7109L43.4121 87.9307L35.6752 89.4778L34.6436 81.7423" stroke="#4D545C" stroke-width="0.5" stroke-linecap="round" stroke-linejoin="round" stroke-dasharray="2 2"/>
<path d="M24.8887 47.8598C26.7756 51.0032 32.5051 55.2992 40.3274 47.3359" stroke="#4D545C" stroke-width="0.5" stroke-linecap="round"/>
<g style="mix-blend-mode:multiply">
<path d="M24.4347 49.1577C23.7082 48.4313 21.7102 49.1577 20.802 49.6117C19.7123 51.0645 20.9534 59.2968 21.7102 63.2314C23.0722 65.9553 22.4367 70.7676 23.5265 71.8572C24.6163 72.9468 36.6948 71.7059 42.5978 70.9492L44.4141 53.6976C45.625 49.763 46.5029 43.3466 40.3274 49.1577C32.6081 56.4215 25.3428 50.0657 24.4347 49.1577Z" fill="#FDF0E4"/>
</g>
<path d="M124.539 60.4913C126.97 55.5368 130.018 50.917 133.609 46.7445C134.995 44.9301 136.971 46.3701 136.971 46.3701C142.052 47.3301 137.512 61.3169 133.039 70.8207C130.395 67.2229 127.557 63.7746 124.539 60.4913Z" fill="white" stroke="#4D545C" stroke-width="0.5" stroke-linecap="round" stroke-linejoin="round"/>
<path d="M135.103 67.5594C137.248 67.154 140.757 53.7761 139.482 51.4113C139.482 51.4113 132.879 47.6084 132.454 48.0331C128.175 52.3573 135.103 67.5594 135.103 67.5594Z" fill="white" stroke="#4D545C" stroke-width="0.5" stroke-linecap="round" stroke-linejoin="round"/>
<path d="M127.555 166.204L127.673 159.922L133.776 160.388L133.62 166.418L130.769 171.332L125.625 167.409L127.555 166.204Z" fill="white" stroke="#4D545C" stroke-width="0.5" stroke-linecap="round" stroke-linejoin="round"/>
<path d="M126.511 165.585C127.639 166.876 128.873 168.063 130.197 169.132C131.432 170.106 133.275 165.923 133.844 165.4C133.961 165.297 134.118 165.4 134.138 165.585L134.863 172.422H116.777C116.718 172.419 116.66 172.403 116.608 172.374C116.556 172.346 116.51 172.306 116.474 172.257C116.438 172.209 116.412 172.153 116.398 172.093C116.384 172.033 116.383 171.97 116.394 171.91C117.355 166.825 126.511 165.585 126.511 165.585Z" fill="white" stroke="#4D545C" stroke-width="0.5" stroke-linecap="round" stroke-linejoin="round"/>
<path d="M124.282 171.217C124.282 171.217 123.174 167.981 120.736 167.438M116.582 171.336H134.864" stroke="#4D545C" stroke-width="0.5" stroke-linecap="round" stroke-linejoin="round"/>
<path d="M134.32 167.531L130.516 171.334" stroke="#4D545C" stroke-width="0.5" stroke-linecap="round" stroke-linejoin="round"/>
<path d="M155.803 166.913L153.883 160.708L160.594 160.469L162.034 167.032L159.544 171.335L154.303 167.311L155.803 166.913Z" fill="white" stroke="#4D545C" stroke-width="0.5" stroke-linecap="round" stroke-linejoin="round"/>
<path d="M155.557 166.121C156.649 167.416 157.846 168.603 159.134 169.668C160.333 170.693 162.122 166.47 162.683 165.947C162.788 165.844 162.95 165.947 162.969 166.131L163.663 172.969H146.109C146.051 172.965 145.995 172.947 145.945 172.917C145.894 172.888 145.85 172.847 145.815 172.798C145.78 172.748 145.755 172.691 145.741 172.631C145.728 172.57 145.727 172.508 145.738 172.447C146.689 167.372 155.557 166.121 155.557 166.121Z" fill="white" stroke="#4D545C" stroke-width="0.5" stroke-linecap="round" stroke-linejoin="round"/>
<path d="M153.152 171.761C153.152 171.761 152.111 168.536 149.817 167.992M145.939 171.881H163.388" stroke="#4D545C" stroke-width="0.5" stroke-linecap="round" stroke-linejoin="round"/>
<path d="M163.122 168.078L159.318 171.881" stroke="#4D545C" stroke-width="0.5" stroke-linecap="round" stroke-linejoin="round"/>
<path d="M127.574 88.2109C127.574 88.2109 125.298 115.661 125.097 123.273C124.895 130.885 126.815 160.472 126.815 160.472H134.429C134.429 160.472 142.484 108.136 151.71 89.8649L127.574 88.2109Z" fill="white" stroke="#4D545C" stroke-width="0.5" stroke-linecap="round" stroke-linejoin="round"/>
<path d="M135.629 161.069L126.534 160.885L125.998 155.531H136.523L135.629 161.069Z" fill="white" stroke="#4D545C" stroke-width="0.5" stroke-linecap="round" stroke-linejoin="round"/>
<path d="M127.256 88.2109C127.256 88.2109 132.636 111.093 138.094 127.273C142.504 140.358 154.195 161.015 154.195 161.015L162.035 160.677L153.725 127.66C153.212 125.708 152.884 123.714 152.745 121.702C152.255 114.101 153.842 98.7428 154.499 88.8976L127.256 88.2109Z" fill="white" stroke="#4D545C" stroke-width="0.5" stroke-linecap="round" stroke-linejoin="round"/>
<path d="M162.558 161.069L153.695 161.623L150.926 156.07L161.852 155.531L162.558 161.069Z" fill="white" stroke="#4D545C" stroke-width="0.5" stroke-linecap="round" stroke-linejoin="round"/>
<path d="M148.146 40.1002C148.146 40.1002 160.116 41.3188 160.869 51.251C161.623 61.1832 156.647 102.334 156.647 102.334L123.994 100.245L127.076 53.5914C127.193 51.0689 127.969 48.6212 129.327 46.4928C130.583 44.5586 132.051 42.3246 132.882 42.2182L146.31 38.7656L148.146 40.1002Z" fill="white" stroke="#4D545C" stroke-width="0.5" stroke-linecap="round" stroke-linejoin="round"/>
<path d="M146.252 76.8217C145.272 76.6857 132.3 77.1019 123.705 75.1677C121.34 74.6299 120.715 70.8966 121.557 68.6536L128.064 49.0267L138.838 53.715C135.883 57.5945 135.114 62.6473 133.821 66.9407C133.353 68.4787 133.196 68.077 134.595 68.5527L146.415 71.0501C147.038 71.0155 147.655 70.9062 148.254 70.7247C149.468 70.4746 150.718 70.4654 151.933 70.6978L149.423 71.7117C148.994 71.8738 149.118 72.0869 149.988 72.3444L155.555 73.9622C155.555 73.9622 156.661 74.5238 155.857 74.5063C155.053 74.4887 152.574 74.1825 152.484 74.1715C150.973 73.8791 156.203 75.1486 155.903 75.5028C155.603 75.8569 152.408 75.3181 152.408 75.3934C152.409 75.4688 155.624 76.273 155.357 76.6168C155.09 76.9606 152.184 76.2951 152.111 76.248C152.038 76.2009 154.526 76.6639 154.394 76.8562C154.263 77.0484 146.831 76.918 146.252 76.8217Z" fill="white" stroke="#4D545C" stroke-width="0.5" stroke-linecap="round" stroke-linejoin="round"/>
<path d="M144.386 31.7306L147.906 41.0674L145.252 42.3722C141.227 43.8414 137.601 42.9135 137.037 41.2607L137.572 35.6837L143.21 30.6094C143.566 30.8511 143.892 31.1333 144.182 31.4503C144.236 31.5533 144.305 31.6478 144.386 31.7306Z" fill="white" stroke="#4D545C" stroke-width="0.5" stroke-linecap="round" stroke-linejoin="round"/>
<path d="M133.619 22.0413C133.521 23.8811 135.085 23.1607 135.085 23.1607C138.227 25.2831 141.236 27.5911 144.097 30.0722C144.097 30.0722 145.937 29.7412 145.957 29.2837C146.045 25.7891 145.829 21.5643 145.829 21.5643C146.157 21.3456 146.421 21.0449 146.594 20.6927C146.766 20.3405 146.842 19.9494 146.813 19.559C146.813 19.559 146.439 18.0793 145.16 18.2935C145.233 18.053 145.238 17.7969 145.171 17.5543C145.105 17.3117 144.972 17.0922 144.786 16.921C144.595 16.7844 144.361 16.72 144.126 16.7397C143.892 16.7593 143.672 16.8617 143.507 17.028C143.474 16.5305 143.28 16.0566 142.954 15.6763C142.628 15.296 142.187 15.0293 141.697 14.9157C141.201 14.8022 140.681 14.8613 140.224 15.083C139.767 15.3046 139.401 15.6752 139.188 16.1325C139.188 16.1325 138.863 15.2369 138.332 15.2856C137.801 15.3342 137.584 16.1811 137.584 16.1811C137.567 15.9865 137.507 15.798 137.407 15.6291C137.308 15.4603 137.172 15.3152 137.009 15.2045C136.847 15.0938 136.661 15.0201 136.466 14.9886C136.271 14.9572 136.072 14.9688 135.882 15.0227C134.278 15.2369 134.18 17.0767 134.18 17.0767C134.163 16.9905 134.128 16.9087 134.077 16.8368C134.026 16.7649 133.961 16.7044 133.885 16.6594C133.808 16.6143 133.723 16.5857 133.635 16.5755C133.547 16.5652 133.458 16.5734 133.373 16.5997C132.389 16.7652 131.888 17.9236 132.793 19.0333C132.571 19.2066 132.397 19.4317 132.285 19.6883C132.174 19.9449 132.128 20.225 132.153 20.5032C132.183 21.5059 133.619 22.0413 133.619 22.0413Z" fill="white" stroke="#4D545C" stroke-width="0.5" stroke-linecap="round" stroke-linejoin="round"/>
<path d="M144.102 28.2644C144.117 28.3048 144.142 28.3408 144.175 28.3692C144.207 28.3976 144.247 28.4175 144.289 28.427C144.331 28.4366 144.375 28.4355 144.417 28.424C144.459 28.4124 144.497 28.3907 144.528 28.3608C144.984 27.9173 145.895 27.3001 146.225 29.084C146.661 31.4947 144.131 31.0801 143.927 31.4079C143.52 32.0636 142.201 34.3007 140.243 35.1397C139.55 35.4635 138.775 35.5759 138.018 35.4626C137.26 35.3493 136.553 35.0155 135.987 34.5032C134.678 33.2593 133.96 34.725 134.503 21.4181C134.608 21.7369 134.834 22.0022 135.133 22.1573C135.432 22.3123 135.78 22.3446 136.103 22.2474C136.985 22.0641 137.693 21.2831 138.663 21.0517C139.049 20.8941 139.466 20.8213 139.884 20.8384C140.302 20.8554 140.711 20.9618 141.083 21.1503C141.456 21.3388 141.783 21.6051 142.043 21.9308C142.303 22.2566 142.489 22.6343 142.589 23.0381C143.016 24.3302 143.704 27.3001 144.102 28.2644Z" fill="white" stroke="#4D545C" stroke-width="0.5" stroke-linecap="round" stroke-linejoin="round"/>
<path d="M137.409 32.0135C136.475 31.8985 136.297 32.1169 135.467 32.5337C135.467 32.5337 136.157 31.3999 136.973 31.5125C137.79 31.6251 137.409 32.0135 137.409 32.0135Z" fill="#4D545C"/>
<path d="M136.494 27.3508C136.494 27.6499 136.617 27.8991 136.761 27.8991C136.904 27.8991 137.038 27.6499 137.038 27.3508C137.038 27.0518 136.915 26.8125 136.761 26.8125C136.607 26.8125 136.494 27.0518 136.494 27.3508Z" fill="#4D545C"/>
<path d="M134.861 27.3508C134.861 27.6599 134.984 27.8991 135.138 27.8991C135.292 27.8991 135.405 27.6599 135.405 27.3508C135.405 27.0418 135.282 26.8125 135.138 26.8125C134.995 26.8125 134.861 27.0518 134.861 27.3508Z" fill="#4D545C"/>
<path d="M135.818 28.4396L135.133 29.9408V30.0095L135.948 30.0695M136.22 25.4513C136.582 25.3608 137.361 25.1797 137.578 25.1797M135.405 25.4513L134.861 25.1797" stroke="#4D545C" stroke-width="0.5" stroke-linecap="round" stroke-linejoin="round"/>
<g style="mix-blend-mode:multiply">
<path d="M125.016 99.879L126.366 79.5198L133.12 78.9695H143.529C147.419 77.8691 154.01 77.9608 155.001 73.7422L158.512 75.6681L155.811 102.08L125.016 99.879Z" fill="#E8F8EC"/>
</g>
<path d="M128.115 47.0261C128.115 47.0261 131.633 39.424 137.496 43.0065C138.836 48.366 138.5 64.5213 135.29 68.1136L122.363 60.8898L128.115 47.0261Z" fill="white" stroke="#4D545C" stroke-width="0.5" stroke-linecap="round" stroke-linejoin="round"/>
<path d="M133.387 43.706C133.509 44.6882 133.098 68.5422 134.906 77.1632C135.409 79.5355 141.942 76.6325 144.198 75.8234L153.959 69.5458L158.29 49.2011C158.154 49.2471 149.851 57.8457 145.538 59.0749C143.993 59.5203 142.643 62.4902 142.188 61.0847L139.161 43.6284C139.205 43.0057 139.324 42.3901 139.514 41.7949C139.782 40.585 139.81 39.3354 139.595 38.1172L138.544 40.6111C138.376 41.0379 138.164 40.9103 137.92 40.0373L136.384 34.4484C136.384 34.4484 135.838 33.3345 135.844 34.1385C135.85 34.9425 136.12 37.4251 136.129 37.5155C136.399 39.0299 135.207 33.783 134.848 34.0778C134.49 34.3726 134.981 37.5744 134.906 37.5725C134.831 37.5706 134.074 34.3449 133.726 34.6066C133.378 34.8683 134.001 37.7832 134.047 37.8572C134.093 37.9312 133.667 35.4374 133.472 35.5659C133.278 35.6943 133.299 43.1259 133.387 43.706Z" fill="white" stroke="#4D545C" stroke-width="0.5" stroke-linecap="round" stroke-linejoin="round"/>
<path d="M149.56 47.6903C149.56 47.6903 152.908 41.6608 158.939 43.6707C167.506 47.8368 157.599 70.4681 152.908 72.4779L142.858 61.0891L149.56 47.6903Z" fill="white" stroke="#4D545C" stroke-width="0.5" stroke-linecap="round" stroke-linejoin="round"/>
<path d="M133.477 65.1099L124.096 60.4203C127.848 47.0216 131.466 43.6719 132.807 43.6719L133.477 65.1099Z" fill="#E8F8EC"/>
<g style="mix-blend-mode:multiply">
<path d="M150.229 40.9922C148.085 43.6719 142.188 44.3419 139.508 44.3419L142.188 59.7504L143.528 61.7602L152.909 71.8093C158.94 65.1099 160.95 53.721 160.95 49.0314C160.95 44.3419 156.26 43.6719 155.589 43.002C155.053 42.466 151.792 41.4388 150.229 40.9922Z" fill="#E8F8EC"/>
</g>
</svg>
