<svg width="23" height="16" viewBox="0 0 23 16" fill="none" xmlns="http://www.w3.org/2000/svg">
<g clip-path="url(#clip0_6394_572)">
<path d="M9.57344 1.74319C10.3143 0.979279 11.3458 0.505501 12.4865 0.505501C14.003 0.505501 15.3261 1.3423 16.0306 2.58452C16.6608 2.30596 17.3435 2.16237 18.0337 2.16319C20.7688 2.16319 22.9862 4.37652 22.9862 7.10675C22.9862 9.83732 20.7688 12.0507 18.0337 12.0507C17.7061 12.0509 17.3793 12.0187 17.0582 11.9545C16.4377 13.0497 15.2554 13.7896 13.8983 13.7896C13.3495 13.7903 12.8078 13.6669 12.3145 13.4289C11.6855 14.8929 10.2201 15.9195 8.51214 15.9195C6.73358 15.9195 5.21785 14.8058 4.63596 13.2439C4.38175 13.2974 4.11829 13.3252 3.848 13.3252C1.73044 13.3252 0.0136817 11.609 0.0136817 9.49146C0.0121562 8.82039 0.18838 8.16065 0.524791 7.57797C0.861202 6.9953 1.34605 6.51005 1.93102 6.17057C1.68813 5.61725 1.56313 5.02032 1.56381 4.41706C1.56381 1.98186 3.56164 0.0078125 6.02593 0.0078125C7.47267 0.0078125 8.75835 0.688524 9.57344 1.74319Z" fill="#00A1E0"/>
<path d="M3.34112 8.26181C3.32675 8.29905 3.34633 8.30678 3.351 8.31336C3.39412 8.34438 3.43795 8.36669 3.48215 8.39158C3.7165 8.51469 3.93766 8.55069 4.16905 8.55069C4.64028 8.55069 4.93284 8.30269 4.93284 7.90332V7.89558C4.93284 7.52643 4.60264 7.39229 4.29274 7.29558L4.2525 7.28252C4.01886 7.20741 3.81729 7.14269 3.81729 6.99043V6.98243C3.81729 6.85221 3.93505 6.75629 4.11767 6.75629C4.32059 6.75629 4.56141 6.82296 4.71654 6.90785C4.71654 6.90785 4.76199 6.93701 4.7787 6.89327C4.78786 6.86998 4.86637 6.66083 4.87463 6.63816C4.88344 6.61354 4.86772 6.59541 4.85173 6.58572C4.67468 6.47905 4.4299 6.40625 4.17659 6.40625L4.12944 6.40661C3.69818 6.40661 3.39708 6.66438 3.39708 7.03389V7.04163C3.39708 7.43123 3.72926 7.55745 4.04042 7.64554L4.09054 7.66083C4.31726 7.72972 4.51272 7.78901 4.51272 7.94705V7.95478C4.51272 8.09923 4.38571 8.20678 4.18082 8.20678C4.10132 8.20678 3.84774 8.20518 3.57377 8.03381C3.54071 8.01469 3.5214 8.00083 3.49589 7.98563C3.48242 7.97718 3.44882 7.96252 3.43409 8.00661L3.34112 8.26181ZM10.2398 8.26181C10.2254 8.29905 10.245 8.30678 10.2497 8.31336C10.2928 8.34438 10.3366 8.36669 10.3808 8.39158C10.6151 8.51469 10.8363 8.55069 11.0677 8.55069C11.5389 8.55069 11.8315 8.30269 11.8315 7.90332V7.89558C11.8315 7.52643 11.5013 7.39229 11.1914 7.29558L11.1512 7.28252C10.9175 7.20741 10.7159 7.14269 10.7159 6.99043V6.98243C10.7159 6.85221 10.8337 6.75629 11.0163 6.75629C11.2192 6.75629 11.4601 6.82296 11.6152 6.90785C11.6152 6.90785 11.6606 6.93701 11.6774 6.89327C11.6865 6.86998 11.765 6.66083 11.7732 6.63816C11.7821 6.61354 11.7664 6.59541 11.7503 6.58572C11.5733 6.47905 11.3285 6.40625 11.0752 6.40625L11.0281 6.40661C10.5967 6.40661 10.2957 6.66438 10.2957 7.03389V7.04163C10.2957 7.43123 10.6278 7.55745 10.9391 7.64554L10.9891 7.66083C11.2159 7.72972 11.4116 7.78901 11.4116 7.94705V7.95478C11.4116 8.09923 11.2843 8.20678 11.0795 8.20678C10.8645 8.2083 10.6537 8.14823 10.4724 8.03381C10.4394 8.01469 10.4197 8.00145 10.3949 7.98563C10.3864 7.98012 10.3464 7.96483 10.3327 8.00661L10.2398 8.26181ZM14.9493 7.47967C14.9493 7.70545 14.9067 7.88323 14.823 8.00883C14.7402 8.13327 14.6148 8.19372 14.44 8.19372C14.265 8.19372 14.1403 8.13354 14.0588 8.00883C13.9764 7.88349 13.9345 7.70545 13.9345 7.47967C13.9345 7.25434 13.9764 7.07683 14.0588 6.95256C14.1403 6.82945 14.265 6.76954 14.44 6.76954C14.6148 6.76954 14.7401 6.82945 14.8232 6.95247C14.9068 7.07692 14.9493 7.25434 14.9493 7.47967ZM15.3426 7.06127C15.304 6.93212 15.2438 6.81816 15.1636 6.72323C15.0834 6.62803 14.982 6.55167 14.8615 6.49594C14.7414 6.44056 14.5994 6.41238 14.44 6.41238C14.2803 6.41238 14.1383 6.44056 14.0182 6.49594C13.8979 6.55158 13.7964 6.62803 13.7159 6.72323C13.636 6.81843 13.5757 6.93247 13.5368 7.06127C13.4986 7.18989 13.4794 7.33043 13.4794 7.47967C13.4794 7.62901 13.4986 7.76989 13.5368 7.89807C13.5758 8.02696 13.6357 8.14092 13.7162 8.23621C13.7984 8.33295 13.9016 8.41 14.0182 8.46154C14.1386 8.51567 14.2803 8.54314 14.44 8.54314C14.5994 8.54314 14.7411 8.51558 14.8615 8.46154C14.9781 8.41001 15.0814 8.33296 15.1636 8.23621C15.2438 8.14127 15.304 8.02732 15.3426 7.89807C15.3812 7.76954 15.4006 7.62874 15.4006 7.47967C15.4006 7.33078 15.3812 7.18989 15.3426 7.06127ZM18.5727 8.13354C18.5597 8.09567 18.5226 8.10989 18.5226 8.10989C18.4654 8.13158 18.4045 8.15167 18.3398 8.16172C18.2684 8.17219 18.1963 8.17727 18.1241 8.17692C17.9337 8.17692 17.7824 8.12092 17.6741 8.01016C17.5655 7.89941 17.5046 7.72038 17.5052 7.47807C17.5059 7.25763 17.5596 7.09176 17.6561 6.96545C17.752 6.83985 17.8979 6.77541 18.0927 6.77541C18.255 6.77541 18.3787 6.79381 18.5083 6.83434C18.5083 6.83434 18.5394 6.84767 18.5541 6.80741C18.5884 6.71292 18.614 6.64518 18.6507 6.54127C18.6611 6.51176 18.6356 6.49914 18.6264 6.49558C18.5754 6.47585 18.4549 6.44376 18.3639 6.43016C18.2789 6.41727 18.1794 6.41043 18.0688 6.41043C17.9035 6.41043 17.7563 6.43825 17.6302 6.49398C17.5046 6.54936 17.3979 6.62581 17.3135 6.72101C17.2291 6.81612 17.1649 6.93016 17.1221 7.05905C17.0795 7.18758 17.0579 7.32883 17.0579 7.47807C17.0579 7.80092 17.146 8.06198 17.3197 8.25301C17.4938 8.44474 17.7554 8.54216 18.0962 8.54216C18.2978 8.54216 18.5047 8.50172 18.6532 8.44376C18.6532 8.44376 18.6817 8.43016 18.6693 8.39745L18.5727 8.13354ZM19.261 7.26349C19.2796 7.13816 19.3146 7.03389 19.3686 6.95265C19.4501 6.82927 19.5744 6.76154 19.7492 6.76154C19.9239 6.76154 20.0395 6.82954 20.1223 6.95265C20.1772 7.03389 20.2011 7.14269 20.2106 7.26349H19.261ZM20.5853 6.98794C20.5519 6.86323 20.4691 6.73727 20.4148 6.67967C20.3291 6.58829 20.2453 6.52447 20.1622 6.48892C20.0415 6.43828 19.9117 6.41227 19.7806 6.41247C19.6144 6.41247 19.4635 6.44003 19.3411 6.49692C19.2184 6.55398 19.1153 6.63167 19.0345 6.72856C18.9536 6.82501 18.8928 6.94003 18.8542 7.07052C18.8152 7.20029 18.7956 7.34189 18.7956 7.49114C18.7956 7.64305 18.8159 7.78447 18.8562 7.91176C18.8967 8.04003 18.9615 8.15309 19.0493 8.24661C19.1366 8.34083 19.2492 8.41469 19.384 8.46616C19.5178 8.51736 19.6804 8.54394 19.8673 8.54358C20.2518 8.54225 20.4545 8.45745 20.5378 8.41176C20.5525 8.40376 20.5666 8.38945 20.549 8.34865L20.4619 8.10741C20.4489 8.07141 20.4119 8.08474 20.4119 8.08474C20.3167 8.11967 20.1812 8.18252 19.8654 8.18189C19.6589 8.18154 19.5057 8.12127 19.4099 8.02705C19.3113 7.93061 19.2633 7.78883 19.2547 7.58865L20.5863 7.58989C20.5863 7.58989 20.6213 7.58927 20.6249 7.55558C20.6262 7.54136 20.6708 7.28483 20.5853 6.98794ZM8.59712 7.26349C8.61608 7.13816 8.65075 7.03389 8.70482 6.95265C8.7863 6.82927 8.91061 6.76154 9.08533 6.76154C9.26013 6.76154 9.37565 6.82954 9.45873 6.95265C9.51344 7.03389 9.53733 7.14269 9.54676 7.26349H8.59712ZM9.92116 6.98794C9.88774 6.86323 9.80528 6.73727 9.75094 6.67967C9.66525 6.58829 9.58144 6.52447 9.49835 6.48892C9.37765 6.43828 9.24786 6.41227 9.11677 6.41247C8.95086 6.41247 8.79968 6.44003 8.67734 6.49692C8.55454 6.55398 8.45151 6.63167 8.37067 6.72856C8.28983 6.82501 8.22901 6.94003 8.19039 7.07052C8.15176 7.20029 8.13182 7.34189 8.13182 7.49114C8.13182 7.64305 8.15203 7.78447 8.19237 7.91176C8.23288 8.04003 8.29773 8.15309 8.3854 8.24661C8.4728 8.34083 8.58535 8.41469 8.72018 8.46616C8.85402 8.51736 9.01661 8.54394 9.20345 8.54358C9.58799 8.54225 9.79055 8.45745 9.874 8.41176C9.88873 8.40376 9.90275 8.38945 9.88514 8.34865L9.79846 8.10741C9.78498 8.07141 9.74807 8.08474 9.74807 8.08474C9.65285 8.11967 9.51766 8.18252 9.2012 8.18189C8.99505 8.18154 8.8419 8.12127 8.74605 8.02705C8.64751 7.93061 8.59937 7.78883 8.59092 7.58865L9.92242 7.58989C9.92242 7.58989 9.95745 7.58927 9.96104 7.55558C9.96239 7.54136 10.0069 7.28483 9.92116 6.98794ZM5.719 8.12625C5.6669 8.08518 5.65971 8.07478 5.64211 8.04821C5.61588 8.00776 5.6025 7.95007 5.6025 7.87692C5.6025 7.76101 5.64112 7.67781 5.72125 7.62181C5.72035 7.62207 5.83577 7.52296 6.1075 7.52652C6.2982 7.52918 6.46869 7.55701 6.46869 7.55701V8.15612H6.46905C6.46905 8.15612 6.29982 8.19203 6.10939 8.20332C5.83838 8.21949 5.71801 8.12598 5.719 8.12625ZM6.2488 7.20047C6.19481 7.19656 6.12484 7.19425 6.04103 7.19425C5.92677 7.19425 5.81646 7.20847 5.71316 7.23603C5.61341 7.26163 5.51917 7.30488 5.43497 7.36367C5.35457 7.42043 5.28848 7.49477 5.24184 7.58092C5.19477 7.66776 5.17088 7.77007 5.17088 7.88465C5.17088 8.00127 5.19109 8.10261 5.23169 8.18554C5.27128 8.26752 5.33105 8.33834 5.40551 8.39149C5.47943 8.44492 5.57079 8.48412 5.67678 8.50776C5.78116 8.53141 5.89955 8.54332 6.02917 8.54332C6.16571 8.54332 6.30179 8.53238 6.43366 8.50998C6.54589 8.49086 6.65771 8.46949 6.76907 8.44589C6.81326 8.43549 6.8624 8.42225 6.8624 8.42225C6.89545 8.41416 6.89276 8.37914 6.89276 8.37914L6.89213 7.17425C6.89213 6.90998 6.82081 6.71407 6.68041 6.59265C6.54073 6.47149 6.33485 6.41034 6.06878 6.41034C5.96908 6.41034 5.80829 6.42394 5.71217 6.44305C5.71217 6.44305 5.42114 6.49869 5.3014 6.59132C5.3014 6.59132 5.27526 6.60749 5.28963 6.64376L5.38395 6.89443C5.39563 6.92678 5.42742 6.91576 5.42742 6.91576C5.42742 6.91576 5.43757 6.91194 5.44934 6.90509C5.70553 6.76714 6.02953 6.77141 6.02953 6.77141C6.17352 6.77141 6.2841 6.79985 6.35874 6.85656C6.43141 6.91158 6.46833 6.99478 6.46833 7.17034V7.22598C6.3538 7.20981 6.2488 7.20047 6.2488 7.20047ZM16.9884 6.52145C16.9903 6.51706 16.9913 6.51232 16.9914 6.50753C16.9914 6.50274 16.9905 6.498 16.9886 6.49358C16.9867 6.48917 16.984 6.48517 16.9805 6.48183C16.977 6.4785 16.9729 6.47589 16.9684 6.47416C16.9458 6.46545 16.8326 6.44181 16.7452 6.43629C16.578 6.42625 16.485 6.45407 16.4019 6.49105C16.3195 6.52794 16.2279 6.58749 16.1767 6.65523V6.49487C16.1767 6.47256 16.1608 6.45478 16.1385 6.45478H15.7971C15.775 6.45478 15.7589 6.47256 15.7589 6.49487V8.46021C15.7589 8.48225 15.7772 8.50038 15.7995 8.50038H16.1493C16.1546 8.50036 16.1598 8.4993 16.1647 8.49727C16.1696 8.49524 16.1741 8.49227 16.1778 8.48854C16.1815 8.48481 16.1845 8.48039 16.1865 8.47553C16.1885 8.47066 16.1895 8.46546 16.1895 8.46021V7.47834C16.1895 7.34661 16.2042 7.21505 16.2337 7.13256C16.2624 7.05087 16.3018 6.98554 16.3502 6.93852C16.3965 6.89345 16.4529 6.85993 16.5149 6.84074C16.5767 6.82198 16.6451 6.81585 16.6935 6.81585C16.7632 6.81585 16.8398 6.83363 16.8398 6.83363C16.8653 6.83656 16.8797 6.82101 16.8883 6.79807C16.9111 6.73781 16.9759 6.55736 16.9883 6.52145" fill="white"/>
<path d="M13.704 5.61501C13.6608 5.60208 13.6169 5.59169 13.5724 5.5839C13.5126 5.5742 13.4521 5.56968 13.3915 5.57038C13.1506 5.57038 12.9608 5.63767 12.8277 5.77047C12.6951 5.90256 12.6051 6.10372 12.56 6.36825L12.5435 6.45732H12.2412C12.2412 6.45732 12.2045 6.45598 12.1967 6.49554L12.1473 6.76985C12.1437 6.79572 12.1551 6.81225 12.1904 6.81225H12.4847L12.1862 8.46114C12.163 8.59394 12.1362 8.7031 12.1064 8.78594C12.0773 8.86754 12.0489 8.92878 12.0135 8.9735C11.9793 9.01616 11.9474 9.04798 11.8917 9.06638C11.8459 9.08167 11.7929 9.08878 11.7349 9.08878C11.7029 9.08878 11.66 9.08354 11.6283 9.07714C11.6034 9.07233 11.5793 9.06457 11.5563 9.05403C11.5563 9.05403 11.522 9.04114 11.5082 9.07518C11.4974 9.10336 11.4188 9.3167 11.4094 9.34301C11.4002 9.36923 11.4133 9.38958 11.43 9.39572C11.4692 9.40932 11.4983 9.41838 11.5517 9.43101C11.6257 9.44825 11.6882 9.44914 11.7468 9.44914C11.8691 9.44914 11.9811 9.43198 12.0737 9.39901C12.1666 9.36567 12.2478 9.30763 12.3198 9.22923C12.3973 9.14443 12.4461 9.05572 12.4925 8.9343C12.5387 8.81447 12.5783 8.6655 12.6097 8.49198L12.9098 6.81225H13.3483C13.3483 6.81225 13.3852 6.8135 13.3928 6.77367L13.4425 6.49972C13.4458 6.4735 13.4347 6.45732 13.399 6.45732H12.9732C12.9755 6.4479 12.9948 6.29963 13.0436 6.16007C13.0645 6.10078 13.1038 6.05252 13.1368 6.01954C13.168 5.98817 13.2063 5.96462 13.2485 5.95083C13.2907 5.93723 13.3388 5.93074 13.3915 5.93074C13.4314 5.93074 13.471 5.93527 13.5007 5.94141C13.5421 5.95021 13.558 5.95474 13.5688 5.95794C13.6124 5.97092 13.6182 5.9583 13.6268 5.9375L13.7285 5.66105C13.739 5.63127 13.7132 5.61856 13.704 5.61501ZM7.75554 8.46478C7.75554 8.48674 7.73946 8.50461 7.71728 8.50461H7.36417C7.34189 8.50461 7.32617 8.48683 7.32617 8.46478V5.65261C7.32617 5.63065 7.34189 5.61278 7.36417 5.61278H7.71719C7.73946 5.61278 7.75554 5.63056 7.75554 5.65261V8.46478Z" fill="white"/>
</g>
<defs>
<clipPath id="clip0_6394_572">
<rect width="23" height="16" fill="white"/>
</clipPath>
</defs>
</svg>
